<svg version="1.2" xmlns="http://www.w3.org/2000/svg" viewBox="0 0 512 512" width="512" height="512">
	<title>bathtub-svg</title>
	<style>
		.s0 { fill: #2d527c } 
		.s1 { fill: #cee8fa } 
		.s2 { fill: #f0bf5f } 
	</style>
	<g id="Layer">
		<path id="Layer" class="s0" d="m303.6 453.1h-141.3c-71.3 0-129.3-58-129.3-129.3v-122.6c0-8 6.5-14.4 14.4-14.4 7.9 0 14.4 6.5 14.4 14.4v122.7c0 55.4 45 100.4 100.4 100.4h141.3c8 0 14.4 6.5 14.4 14.4 0.1 8-6.3 14.4-14.3 14.4z"/>
		<path id="Layer" class="s0" d="m387.7 446.7c-6 0-11.5-3.7-13.6-9.7-2.6-7.5 1.3-15.7 8.8-18.4 40.2-14.1 67.2-52.2 67.2-94.8v-14.5c0-8 6.5-14.4 14.4-14.4 7.9 0 14.4 6.5 14.4 14.4v14.5c0 54.8-34.7 103.9-86.5 122-1.5 0.6-3.1 0.9-4.7 0.9z"/>
	</g>
	<path id="Layer" class="s1" d="m468.7 248.8h-425.4c-15.9 0-28.8-12.9-28.8-28.8 0-15.9 12.9-28.8 28.8-28.8h425.5c15.9 0 28.8 12.9 28.8 28.8 0 15.9-12.9 28.8-28.9 28.8z"/>
	<path id="Layer" fill-rule="evenodd" class="s0" d="m468.7 263.2h-425.4c-23.9 0-43.3-19.4-43.3-43.3 0-23.9 19.4-43.3 43.3-43.3h425.5c23.9 0 43.3 19.4 43.3 43.3 0 23.9-19.5 43.3-43.4 43.3zm-425.4-57.7c-8 0-14.4 6.5-14.4 14.4 0 7.9 6.5 14.4 14.4 14.4h425.5c8 0 14.4-6.5 14.4-14.4 0-7.9-6.5-14.4-14.4-14.4z"/>
	<path id="Layer" class="s1" d="m113.9 480.2c-13.9 0-25.2-11.3-25.2-25.2 0-13.9 11.3-25.2 25.2-25.2 13.9 0 25.2 11.3 25.2 25.2 0 13.9-11.3 25.2-25.2 25.2z"/>
	<path id="Layer" fill-rule="evenodd" class="s0" d="m113.9 494.7c-21.9 0-39.7-17.8-39.7-39.7 0-21.9 17.8-39.7 39.7-39.7 21.9 0 39.7 17.8 39.7 39.7 0 21.9-17.8 39.7-39.7 39.7zm0-50.5c-6 0-10.8 4.9-10.8 10.8 0 5.9 4.9 10.8 10.8 10.8 5.9 0 10.8-4.9 10.8-10.8 0-5.9-4.8-10.8-10.8-10.8z"/>
	<path id="Layer" class="s1" d="m398.1 480.2c-13.9 0-25.2-11.3-25.2-25.2 0-13.9 11.3-25.2 25.2-25.2 13.9 0 25.2 11.3 25.2 25.2 0 13.9-11.3 25.2-25.2 25.2z"/>
	<g id="Layer">
		<path id="Layer" fill-rule="evenodd" class="s0" d="m398.1 494.7c-21.9 0-39.7-17.8-39.7-39.7 0-21.9 17.8-39.7 39.7-39.7 21.9 0 39.7 17.8 39.7 39.7 0 21.9-17.9 39.7-39.7 39.7zm0-50.5c-6 0-10.8 4.9-10.8 10.8 0 5.9 4.9 10.8 10.8 10.8 5.9 0 10.8-4.9 10.8-10.8 0-5.9-4.9-10.8-10.8-10.8z"/>
		<path id="Layer" class="s2" d="m323.4 88.7h-134.8c-8 0-14.4-6.5-14.4-14.4 0-7.9 6.5-14.4 14.4-14.4h134.9c8 0 14.4 6.5 14.4 14.4 0 7.9-6.5 14.4-14.5 14.4z"/>
		<path id="Layer" class="s2" d="m328.1 116.8c-8 0-14.4-6.5-14.4-14.4v-70.7c0-8 6.5-14.4 14.4-14.4 7.9 0 14.4 6.5 14.4 14.4v70.7c0 8-6.4 14.4-14.4 14.4z"/>
		<path id="Layer" class="s2" d="m354.1 46.2h-51.9c-8 0-14.4-6.5-14.4-14.4 0-7.9 6.5-14.4 14.4-14.4h51.9c8 0 14.4 6.5 14.4 14.4 0 7.9-6.5 14.4-14.4 14.4z"/>
		<path id="Layer" class="s2" d="m183.9 116.8c-8 0-14.4-6.5-14.4-14.4v-70.7c0-8 6.5-14.4 14.4-14.4 7.9 0 14.4 6.5 14.4 14.4v70.7c0 8-6.4 14.4-14.4 14.4z"/>
		<path id="Layer" class="s2" d="m209.8 46.2h-51.9c-8 0-14.4-6.5-14.4-14.4 0-7.9 6.5-14.4 14.4-14.4h51.9c8 0 14.4 6.5 14.4 14.4 0 7.9-6.4 14.4-14.4 14.4z"/>
		<path id="Layer" class="s2" d="m256 150c-8 0-14.4-6.5-14.4-14.4v-59.9c0-8 6.5-14.4 14.4-14.4 7.9 0 14.4 6.5 14.4 14.4v59.9c0 7.9-6.4 14.4-14.4 14.4z"/>
	</g>
	<path id="Layer" class="s1" d="m195.7 334.8h-77.7c-9.8 0-17.8-8-17.8-17.8v-126h113.2v126c0 9.9-7.9 17.8-17.7 17.8z"/>
	<path id="Layer" fill-rule="evenodd" class="s0" d="m195.7 349.3h-77.7c-17.7 0-32.2-14.4-32.2-32.2v-126c0-8 6.5-14.4 14.4-14.4h113.2c8 0 14.4 6.5 14.4 14.4v126c0.1 17.7-14.4 32.2-32.1 32.2zm-81-143.8v111.6c0 1.8 1.5 3.3 3.3 3.3h77.7c1.8 0 3.3-1.5 3.3-3.3v-111.6z"/>
</svg>