<svg version="1.2" xmlns="http://www.w3.org/2000/svg" viewBox="0 0 512 512" width="512" height="512">
	<title>hanger-svg</title>
	<style>
		.s0 { fill: #cee8fa } 
		.s1 { fill: #2d527c } 
		.s2 { fill: #f0bf5f } 
	</style>
	<path id="Layer" class="s0" d="m312 380.7h-227.4v-108.7c0-38.5 31.2-69.7 69.7-69.7h157.7z"/>
	<g id="Layer">
		<path id="Layer" fill-rule="evenodd" class="s1" d="m312 395.2h-227.4c-8 0-14.5-6.5-14.5-14.5v-108.7c0-46.4 37.8-84.2 84.2-84.2h157.7c8 0 14.5 6.5 14.5 14.5v178.4c0 8-6.5 14.5-14.5 14.5zm-212.9-29h198.3v-149.3h-143.2c-30.4 0-55.1 24.7-55.1 55.1z"/>
		<path id="Layer" class="s2" d="m461.9 265.8h-411.8c-27.6 0-50.1-22.5-50.1-50.2v-45.1c0-27.6 22.5-50.1 50.1-50.1h103.7c8 0 14.5 6.5 14.5 14.5 0 8-6.5 14.5-14.5 14.5h-103.7c-11.6 0-21.1 9.5-21.1 21.1v45.1c0 11.6 9.5 21.1 21.1 21.1h411.7c11.6 0 21.1-9.5 21.1-21.1v-45.1c0-11.6-9.5-21.1-21.1-21.1h-205.8c-8 0-14.5-6.5-14.5-14.5 0-8 6.5-14.5 14.5-14.5h205.9c27.6 0 50.1 22.5 50.1 50.1v45.1c0 27.7-22.5 50.2-50.1 50.2z"/>
		<path id="Layer" class="s2" d="m256 148.6c-4.5 0-8.8-2-11.7-5.9-4.8-6.5-3.4-15.6 3-20.3 13.7-10.2 42.1-37 42.1-54.9 0-19.4-14.1-33.4-33.4-33.4-18.4 0-33.4 15-33.4 33.4 0 8-6.5 14.5-14.5 14.5-8 0-14.5-6.5-14.5-14.5v-1.3c0-0.4 0-0.8 0.1-1.2 1.2-33.4 28.7-60 62.3-60 35.6 0 62.5 26.9 62.5 62.5 0 37.4-48.3 74.2-53.9 78.3-2.6 1.9-5.6 2.8-8.6 2.8z"/>
		<path id="Layer" class="s1" d="m363.3 475.2h-192.3c-8 0-14.5-6.5-14.5-14.5v-79.9c0-8 6.5-14.5 14.5-14.5h256.5c8 0 14.5 6.5 14.5 14.5 0 8-6.5 14.5-14.5 14.5h-242v50.9h177.8c8 0 14.5 6.5 14.5 14.5 0 8-6.5 14.5-14.5 14.5z"/>
	</g>
	<path id="Layer" class="s0" d="m427.4 380.7v-120.3c0-32.1-26-58.1-58.1-58.1h-198.3v178.4z"/>
	<g id="Layer">
		<path id="Layer" fill-rule="evenodd" class="s1" d="m427.4 395.2h-256.4c-8 0-14.5-6.5-14.5-14.5v-178.3c0-8 6.5-14.5 14.5-14.5h198.4c40 0 72.6 32.6 72.6 72.6v120.3c0 7.9-6.6 14.4-14.6 14.4zm-241.9-29h227.4v-105.8c0-24-19.5-43.5-43.5-43.5h-183.9z"/>
		<path id="Layer" class="s1" d="m171 507c-8 0-14.5-6.5-14.5-14.5v-31.8c0-8 6.5-14.5 14.5-14.5 8 0 14.5 6.5 14.5 14.5v31.8c0 8-6.5 14.5-14.5 14.5z"/>
		<path id="Layer" class="s1" d="m427.4 507c-8 0-14.5-6.5-14.5-14.5v-121.1c0-8 6.5-14.5 14.5-14.5 8 0 14.5 6.5 14.5 14.5v121.1c0.1 8-6.5 14.5-14.5 14.5z"/>
		<path id="Layer" class="s1" d="m363.3 507c-8 0-14.5-6.5-14.5-14.5v-31.8c0-8 6.5-14.5 14.5-14.5 8 0 14.5 6.5 14.5 14.5v31.8c0 8-6.5 14.5-14.5 14.5z"/>
		<path id="Layer" class="s1" d="m299.2 507c-8 0-14.5-6.5-14.5-14.5v-31.8c0-8 6.5-14.5 14.5-14.5 8 0 14.5 6.5 14.5 14.5v31.8c0 8-6.5 14.5-14.5 14.5z"/>
		<path id="Layer" class="s1" d="m235.1 507c-8 0-14.5-6.5-14.5-14.5v-31.8c0-8 6.5-14.5 14.5-14.5 8 0 14.5 6.5 14.5 14.5v31.8c0 8-6.5 14.5-14.5 14.5z"/>
	</g>
</svg>