<svg version="1.2" xmlns="http://www.w3.org/2000/svg" viewBox="0 0 512 512" width="512" height="512">
	<title>heating-svg</title>
	<style>
		.s0 { fill: #2d527c } 
		.s1 { fill: #cee8fa } 
		.s2 { fill: #f0bf5f } 
	</style>
	<path id="Layer" class="s0" d="m465.9 475.3h-70.4c-7.5 0-13.6-6.1-13.6-13.6 0-7.5 6.1-13.6 13.6-13.6h70.4c10.5 0 19-8.5 19-19v-246.9c0-10.5-8.5-19-19-19h-328c-10.5 0-19 8.5-19 19v247.1c0 10.5 8.5 19 19 19h183c7.5 0 13.6 6.1 13.6 13.6 0 7.5-6.1 13.6-13.6 13.6h-183c-25.4 0-46.1-20.7-46.1-46.1v-247.2c0-25.4 20.7-46.1 46.1-46.1h328c25.4 0 46.1 20.7 46.1 46.1v247.1c0 25.3-20.7 46-46.1 46z"/>
	<path id="Layer" class="s1" d="m190.7 412c-13 0-23.7-10.7-23.7-23.7v-165.2c0-13 10.7-23.7 23.7-23.7 13 0 23.7 10.7 23.7 23.7v165.2c-0.1 13-10.7 23.7-23.7 23.7z"/>
	<path id="Layer" fill-rule="evenodd" class="s2" d="m190.7 425.5c-20.5 0-37.2-16.7-37.2-37.2v-165.2c0-20.5 16.7-37.2 37.2-37.2 20.5 0 37.2 16.7 37.2 37.2v165.2c0 20.5-16.7 37.2-37.2 37.2zm0-212.5c-5.6 0-10.1 4.5-10.1 10.1v165.2c0 5.6 4.5 10.1 10.1 10.1 5.6 0 10.1-4.5 10.1-10.1v-165.2c0-5.6-4.6-10.1-10.1-10.1z"/>
	<path id="Layer" class="s1" d="m301.9 412c-13 0-23.7-10.7-23.7-23.7v-165.2c0-13 10.7-23.7 23.7-23.7 13 0 23.7 10.7 23.7 23.7v165.2c0 13-10.6 23.7-23.7 23.7z"/>
	<path id="Layer" fill-rule="evenodd" class="s2" d="m301.9 425.5c-20.5 0-37.2-16.7-37.2-37.2v-165.2c0-20.5 16.7-37.2 37.2-37.2 20.5 0 37.2 16.7 37.2 37.2v165.2c0.1 20.5-16.6 37.2-37.2 37.2zm0-212.5c-5.6 0-10.1 4.5-10.1 10.1v165.2c0 5.6 4.5 10.1 10.1 10.1 5.6 0 10.1-4.5 10.1-10.1v-165.2c0-5.6-4.5-10.1-10.1-10.1z"/>
	<path id="Layer" class="s1" d="m413.2 412c-13 0-23.7-10.7-23.7-23.7v-165.2c0-13 10.7-23.7 23.7-23.7 13 0 23.7 10.7 23.7 23.7v165.2c0 13-10.7 23.7-23.7 23.7z"/>
	<g id="Layer">
		<path id="Layer" fill-rule="evenodd" class="s2" d="m413.2 425.5c-20.5 0-37.2-16.7-37.2-37.2v-165.2c0-20.5 16.7-37.2 37.2-37.2 20.5 0 37.2 16.7 37.2 37.2v165.2c0 20.5-16.7 37.2-37.2 37.2zm0-212.5c-5.6 0-10.1 4.5-10.1 10.1v165.2c0 5.6 4.5 10.1 10.1 10.1 5.6 0 10.1-4.5 10.1-10.1v-165.2c0-5.6-4.5-10.1-10.1-10.1z"/>
		<path id="Layer" class="s0" d="m105.4 230.5h-47.1c-7.5 0-13.6-6.1-13.6-13.6 0-7.5 6.1-13.6 13.6-13.6h47.1c7.5 0 13.6 6.1 13.6 13.6 0 7.5-6.1 13.6-13.6 13.6z"/>
		<path id="Layer" class="s0" d="m105.4 408h-47.1c-7.5 0-13.6-6.1-13.6-13.6 0-7.5 6.1-13.6 13.6-13.6h47.1c7.5 0 13.6 6.1 13.6 13.6 0 7.5-6.1 13.6-13.6 13.6z"/>
		<path id="Layer" class="s2" d="m47.4 251.5c-7.5 0-13.6-6.1-13.6-13.6v-145c0-7.5 6.1-13.6 13.6-13.6 7.5 0 13.6 6.2 13.6 13.6v145c0 7.5-6.1 13.6-13.6 13.6z"/>
		<path id="Layer" class="s0" d="m47.4 475.3c-7.5 0-13.6-6.1-13.6-13.6v-156c0-7.5 6.1-13.6 13.6-13.6 7.5 0 13.6 6.1 13.6 13.6v156c0 7.5-6.1 13.6-13.6 13.6z"/>
	</g>
	<path id="Layer" class="s1" d="m13.6 50.3h67.8v73.2h-67.8z"/>
	<path id="Layer" fill-rule="evenodd" class="s0" d="m81.3 137h-67.7c-7.5 0-13.6-6.1-13.6-13.6v-73.1c0-7.5 6.1-13.6 13.6-13.6h67.8c7.5 0 13.6 6.1 13.6 13.6v73.2c-0.1 7.4-6.2 13.5-13.7 13.5zm-54.2-27.1h40.7v-46.1h-40.7z"/>
</svg>