<svg version="1.2" xmlns="http://www.w3.org/2000/svg" viewBox="0 0 512 512" width="512" height="512">
	<title>hotel-key-svg</title>
	<style>
		.s0 { fill: #2d527c } 
		.s1 { fill: #f0bf5f } 
		.s2 { fill: #cee8fa } 
	</style>
	<g id="Layer">
		<path id="Layer" class="s0" d="m298.3 143.4h-149.3c-8 0-14.5-6.5-14.5-14.5 0-8 6.5-14.5 14.5-14.5h149.3c8 0 14.5 6.5 14.5 14.5 0 8-6.5 14.5-14.5 14.5z"/>
		<path id="Layer" class="s0" d="m180.9 383.9h-46.1c-74.3 0-134.8-60.5-134.8-134.8 0-49.2 26.8-94.5 70-118.2 7-3.9 15.9-1.3 19.8 5.8 3.9 7 1.3 15.9-5.8 19.8-33.9 18.6-54.9 54.1-54.9 92.7 0 58.3 47.4 105.7 105.7 105.7h46.1c8 0 14.5 6.5 14.5 14.5 0.1 7.9-6.5 14.5-14.5 14.5z"/>
		<path id="Layer" class="s1" d="m193.3 490.3c-66.3 0-120.3-54-120.3-120.4 0-8 6.5-14.5 14.5-14.5 8 0 14.5 6.5 14.5 14.5 0 50.3 40.9 91.3 91.3 91.3 50.4 0 91.3-40.9 91.3-91.3 0-50.3-40.9-91.3-91.3-91.3-25.3 0-48.8 10.1-66.2 28.4-5.5 5.8-14.7 6.1-20.6 0.5-5.8-5.5-6.1-14.7-0.5-20.6 23-24.2 54-37.5 87.3-37.5 66.4 0 120.4 54 120.4 120.4 0 66.4-54 120.5-120.4 120.5z"/>
		<path id="Layer" class="s1" d="m384.5 355.2h-88.8c-8 0-14.5-6.5-14.5-14.5 0-8 6.5-14.5 14.5-14.5h88.8c8 0 14.5 6.5 14.5 14.5 0 8-6.5 14.5-14.5 14.5z"/>
		<path id="Layer" class="s1" d="m479.5 413.7h-180.4c-8 0-14.5-6.5-14.5-14.5 0-8 6.5-14.5 14.5-14.5h180.4c1.9 0 3.4-1.5 3.4-3.4v-82.6c0-2.8-2.3-5-5-5h-12.6c-2.8 0-5 2.3-5 5v38.8c0 8-6.5 14.5-14.5 14.5-8 0-14.5-6.5-14.5-14.5v-38.8c0-18.8 15.3-34.1 34.1-34.1h12.6c18.8 0 34.1 15.3 34.1 34.1v82.6c-0.1 17.8-14.7 32.4-32.6 32.4z"/>
	</g>
	<path id="Layer" class="s2" d="m193.3 410.7c-22.9 0-41.4-18.5-41.4-41.4 0-22.9 18.5-41.4 41.4-41.4 22.9 0 41.4 18.5 41.4 41.4 0 22.9-18.5 41.4-41.4 41.4z"/>
	<path id="Layer" fill-rule="evenodd" class="s1" d="m193.3 425.2c-30.8 0-55.9-25.1-55.9-55.9 0-30.8 25.1-55.9 55.9-55.9 30.8 0 55.9 25.1 55.9 55.9 0 30.8-25 55.9-55.9 55.9zm0-82.7c-14.8 0-26.8 12-26.8 26.8 0 14.8 12 26.8 26.8 26.8 14.8 0 26.8-12 26.8-26.8 0-14.8-12-26.8-26.8-26.8z"/>
	<path id="Layer" class="s2" d="m216.4 190.6v-123.5c0-17 13.8-30.8 30.8-30.8h219.4c17 0 30.8 13.8 30.8 30.8v123.5c0 17-13.8 30.8-30.8 30.8h-219.3c-17.1 0-30.9-13.8-30.9-30.8z"/>
	<g id="Layer">
		<path id="Layer" fill-rule="evenodd" class="s0" d="m466.6 236h-219.3c-25 0-45.4-20.4-45.4-45.4v-123.5c0-25 20.4-45.4 45.4-45.4h219.4c25 0 45.4 20.4 45.4 45.4v123.5c-0.1 25-20.5 45.4-45.5 45.4zm-219.3-185.2c-9 0-16.3 7.3-16.3 16.3v123.5c0 9 7.3 16.3 16.3 16.3h219.4c9 0 16.3-7.3 16.3-16.3v-123.5c0-9-7.3-16.3-16.3-16.3z"/>
		<path id="Layer" class="s0" d="m344.8 137.4h-4.9v-8.9c0-5.1-5.1-8.4-13-8.4-7.9 0-13 3.3-13 8.4v8.9h-8.9l25.1-50.4c0.4-1 0.9-2.2 0.9-3.4 0-6.3-8.4-10.2-13-10.2-4.8 0-8.7 2.4-10.9 6.7l-34 66.9c-1.2 2.2-1.4 4.1-1.4 5.1 0 5.6 3.7 9.4 9.1 9.4h33.1v14.2c0 5.9 6.7 8.5 13 8.5 6.2 0 13-2.7 13-8.5v-14.2h4.9c4.4 0 8.5-5.9 8.5-12.1 0-5.8-2.7-12-8.5-12z"/>
		<path id="Layer" class="s0" d="m433.6 137.4h-4.9v-8.9c0-5.1-5.1-8.4-13-8.4-7.9 0-13 3.3-13 8.4v8.9h-8.9l25.2-50.4c0.4-1 0.9-2.2 0.9-3.4 0-6.3-8.4-10.2-13-10.2-4.8 0-8.7 2.4-10.9 6.7l-34 66.9c-1.2 2.2-1.4 4.1-1.4 5.1 0 5.6 3.7 9.4 9.1 9.4h33.1v14.2c0 5.9 6.7 8.5 13 8.5 6.3 0 13-2.7 13-8.5v-14.2h4.9c4.4 0 8.5-5.9 8.5-12.1 0-5.8-2.7-12-8.6-12z"/>
	</g>
</svg>