<svg version="1.2" xmlns="http://www.w3.org/2000/svg" viewBox="0 0 512 512" width="512" height="512">
	<title>parking-svg</title>
	<style>
		.s0 { fill: #f0bf5f } 
		.s1 { fill: #cee8fa } 
		.s2 { fill: #2d527c } 
	</style>
	<g id="Layer">
		<path id="Layer" class="s0" d="m121.3 467.9h-34.5c-7.7 0-13.9-6.2-13.9-13.9 0-7.7 6.2-13.9 13.9-13.9h34.5c7.7 0 13.9 6.2 13.9 13.9 0 7.7-6.2 13.9-13.9 13.9z"/>
		<path id="Layer" class="s0" d="m498.1 467.9h-36.6c-7.7 0-13.9-6.2-13.9-13.9 0-7.7 6.2-13.9 13.9-13.9h36.6c7.7 0 13.9 6.2 13.9 13.9 0 7.7-6.2 13.9-13.9 13.9z"/>
		<path id="Layer" class="s0" d="m482.8 466.2h-21.3c-7.7 0-13.9-6.2-13.9-13.9 0-7.7 6.2-13.9 13.9-13.9h7.4v-6.1c0-28.4-12.1-51.3-35-66.3-16.7-10.9-37.9-16.7-61.3-16.7h-202.7c-18.5 0-34.7 13.1-38.5 31.3l-12.2 57.8h4.2c7.7 0 13.9 6.2 13.9 13.9 0 7.7-6.2 13.9-13.9 13.9h-21.3c-4.2 0-8.2-1.9-10.8-5.1-2.6-3.3-3.7-7.5-2.8-11.6l15.7-74.6c6.5-30.9 34.2-53.4 65.8-53.4h202.7c28.8 0 55.3 7.3 76.5 21.2 30.7 20.1 47.6 51.9 47.6 89.6v20c-0.1 7.7-6.3 13.9-14 13.9z"/>
		<path id="Layer" class="s0" d="m325.5 466.2h-106.1c-7.7 0-13.9-6.2-13.9-13.9 0-7.7 6.2-13.9 13.9-13.9h106.2c7.7 0 13.9 6.2 13.9 13.9 0 7.7-6.3 13.9-14 13.9z"/>
	</g>
	<path id="Layer" class="s1" d="m372.6 335.4c21 0 40.7 4.3 57.4 12.5l-19.5-84.5c-5.4-20.6-24.1-35-45.4-35h-123.9c-19 0-36.1 11.4-43.3 29l-29.1 78z"/>
	<g id="Layer">
		<path id="Layer" fill-rule="evenodd" class="s0" d="m430 361.8c-2.1 0-4.2-0.5-6.1-1.4-14.8-7.2-32.6-11.1-51.3-11.1h-203.8c-4.6 0-8.8-2.2-11.4-6-2.6-3.7-3.2-8.5-1.6-12.8l29.1-78c0.1-0.2 0.1-0.3 0.2-0.5 9.4-22.8 31.5-37.6 56.2-37.6h123.9c27.6 0 51.8 18.6 58.8 45.3 0 0.1 0.1 0.3 0.1 0.4l19.5 84.5c1.2 5.2-0.7 10.7-4.9 14-2.5 2.2-5.6 3.2-8.7 3.2zm-241.1-40.3h183.8c13.2 0 26 1.6 38.1 4.7l-13.7-59.4c-3.9-14.4-17-24.4-31.9-24.4h-124c-13.3 0-25.2 7.9-30.4 20.2z"/>
		<path id="Layer" class="s0" d="m325.5 407.8c-7.7 0-13.9-6.2-13.9-13.9v-160.2c0-7.7 6.2-13.9 13.9-13.9 7.7 0 13.9 6.2 13.9 13.9v160.1c0 7.8-6.2 14-13.9 14z"/>
	</g>
	<path id="Layer" fill-rule="evenodd" class="s2" d="m422.5 503.2c-30.4 0-55.1-24.7-55.1-55.1 0-30.4 24.7-55.1 55.1-55.1 30.4 0 55.1 24.7 55.1 55.1 0 30.4-24.7 55.1-55.1 55.1zm0-82.4c-15 0-27.3 12.2-27.3 27.3 0 15.1 12.2 27.3 27.3 27.3 15 0 27.3-12.2 27.3-27.3 0-15.1-12.3-27.3-27.3-27.3z"/>
	<g id="Layer">
		<path id="Layer" fill-rule="evenodd" class="s2" d="m161.7 503.2c-30.4 0-55.1-24.7-55.1-55.1 0-30.4 24.7-55.1 55.1-55.1 30.4 0 55.1 24.7 55.1 55.1 0.1 30.4-24.7 55.1-55.1 55.1zm0-82.4c-15.1 0-27.3 12.2-27.3 27.3 0 15.1 12.2 27.3 27.3 27.3 15.1 0 27.3-12.2 27.3-27.3 0-15.1-12.2-27.3-27.3-27.3z"/>
		<path id="Layer" fill-rule="evenodd" class="s2" d="m189.2 199.5h-175.3c-7.7 0-13.9-6.2-13.9-13.9v-162.9c0-7.7 6.2-13.9 13.9-13.9h175.3c7.7 0 13.9 6.2 13.9 13.9v162.9c0 7.7-6.2 13.9-13.9 13.9zm-161.4-27.8h147.5v-135.1h-147.5z"/>
		<path id="Layer" fill-rule="evenodd" class="s2" d="m135 87.3v0.6c0 19.8-12 31.1-32.9 31.1h-10.3v24.9c0 4.8-4.8 8.1-11.8 8.1-6.9 0-11.8-3.3-11.8-8.1v-79.6c0-4.6 4-8 9.3-8h25.9c20.4 0 31.6 11 31.6 31zm-23.7 2v-1.4c0-7-3-10.4-9.2-10.4h-10.3v22.2h10.3c6.2 0 9.2-3.4 9.2-10.4z"/>
		<path id="Layer" class="s2" d="m101.5 316.5c-7.7 0-13.9-6.2-13.9-13.9v-115.2c0-7.7 6.2-13.9 13.9-13.9 7.7 0 13.9 6.2 13.9 13.9v115.2c0.1 7.7-6.2 13.9-13.9 13.9z"/>
	</g>
</svg>