<svg version="1.2" xmlns="http://www.w3.org/2000/svg" viewBox="0 0 512 512" width="512" height="512">
	<title>reception-svg</title>
	<style>
		.s0 { fill: #f0bf5f } 
		.s1 { fill: #cee8fa } 
		.s2 { fill: #2d527c } 
	</style>
	<g id="Layer">
		<path id="Layer" class="s0" d="m432.2 385.7h-352.4c-8.1 0-14.6-6.5-14.6-14.6v-15.4c0-105.2 85.6-190.8 190.8-190.8 19.9 0 39.5 3.1 58.3 9.1 7.7 2.5 11.9 10.7 9.5 18.4-2.5 7.7-10.7 11.9-18.4 9.5-15.9-5.1-32.5-7.7-49.4-7.7-89.1 0-161.6 72.5-161.6 161.6v0.8h323.2v-0.8c0-43.4-17-84.2-47.8-114.8-5.7-5.7-5.8-14.9-0.1-20.7 5.7-5.7 14.9-5.8 20.7-0.1 36.4 36.1 56.5 84.2 56.5 135.5v15.4c-0.1 8.1-6.6 14.6-14.7 14.6z"/>
		<path id="Layer" class="s0" d="m256 190.7c-8.1 0-14.6-6.5-14.6-14.6v-41.4c0-8.1 6.5-14.6 14.6-14.6 8.1 0 14.6 6.5 14.6 14.6v41.4c0 8.1-6.5 14.6-14.6 14.6z"/>
		<path id="Layer" class="s0" d="m291.8 145.9h-71.6c-8.1 0-14.6-6.5-14.6-14.6 0-8.1 6.5-14.6 14.6-14.6h71.6c8.1 0 14.6 6.5 14.6 14.6 0 8.1-6.5 14.6-14.6 14.6z"/>
	</g>
	<path id="Layer" class="s1" d="m128 371.1h255.9v61.5h-255.9z"/>
	<path id="Layer" fill-rule="evenodd" class="s0" d="m384 447.2h-256c-8.1 0-14.6-6.5-14.6-14.6v-61.5c0-8.1 6.5-14.6 14.6-14.6h256c8.1 0 14.6 6.5 14.6 14.6v61.5c0 8.1-6.6 14.6-14.6 14.6zm-241.3-29.2h226.7v-32.3h-226.7z"/>
	<path id="Layer" class="s1" d="m433.9 479.5h-355.8c-17 0-30.8-13.8-30.8-30.8 0-17 13.8-30.8 30.8-30.8h355.8c17 0 30.8 13.8 30.8 30.8-0.1 17-13.8 30.8-30.8 30.8z"/>
	<g id="Layer">
		<path id="Layer" fill-rule="evenodd" class="s2" d="m433.9 494.1h-355.8c-25 0-45.4-20.3-45.4-45.4 0-25.1 20.3-45.4 45.4-45.4h355.8c25 0 45.4 20.4 45.4 45.4-0.1 25.1-20.4 45.4-45.4 45.4zm-355.8-61.5c-8.9 0-16.1 7.2-16.1 16.1 0 8.9 7.2 16.1 16.1 16.1h355.8c8.9 0 16.1-7.2 16.1-16.1 0-8.9-7.2-16.1-16.1-16.1z"/>
		<path id="Layer" class="s2" d="m256 75.5c-8.1 0-14.6-6.5-14.6-14.6v-28.4c0-8.1 6.5-14.6 14.6-14.6 8.1 0 14.6 6.5 14.6 14.6v28.4c0 8.1-6.5 14.6-14.6 14.6z"/>
		<path id="Layer" class="s2" d="m497.4 273.9h-28.4c-8.1 0-14.6-6.5-14.6-14.6 0-8.1 6.5-14.6 14.6-14.6h28.4c8.1 0 14.6 6.5 14.6 14.6 0 8.1-6.5 14.6-14.6 14.6z"/>
		<path id="Layer" class="s2" d="m43 273.9h-28.4c-8.1 0-14.6-6.5-14.6-14.6 0-8.1 6.5-14.6 14.6-14.6h28.4c8.1 0 14.6 6.5 14.6 14.6 0 8.1-6.5 14.6-14.6 14.6z"/>
		<path id="Layer" class="s2" d="m396.3 133.6c-3.7 0-7.5-1.4-10.3-4.3-5.7-5.7-5.7-15 0-20.7l20-20c5.7-5.7 15-5.7 20.7 0 5.7 5.7 5.7 15 0 20.7l-20.1 20.1c-2.8 2.8-6.6 4.2-10.3 4.2z"/>
		<path id="Layer" class="s2" d="m115.7 133.6c-3.7 0-7.5-1.4-10.3-4.3l-20.1-20.1c-5.7-5.7-5.7-15 0-20.7 5.7-5.7 15-5.7 20.7 0l20.1 20.1c5.7 5.7 5.7 15 0 20.7-2.9 2.9-6.6 4.3-10.4 4.3z"/>
	</g>
</svg>