<svg version="1.2" xmlns="http://www.w3.org/2000/svg" viewBox="0 0 512 512" width="512" height="512">
	<title>search-svg</title>
	<style>
		.s0 { fill: #000000 } 
	</style>
	<g id="Layer">
		<g id="Layer">
			<path id="Layer" fill-rule="evenodd" class="s0" d="m508.9 493.8l-15.1 15.1c-4.2 4.1-10.9 4.1-15.1 0l-148.7-148.8c-34.9 28.3-79.1 45.2-127.3 45.2-111.8 0-202.7-90.9-202.7-202.6 0-111.8 90.9-202.7 202.7-202.7 111.7 0 202.6 90.9 202.6 202.7 0 48.2-16.9 92.4-45.2 127.3l148.8 148.7c4.1 4.2 4.1 10.9 0 15.1zm-146.2-291.1c0-88.3-71.8-160-160-160-88.3 0-160 71.7-160 160 0 88.2 71.7 160 160 160 88.2 0 160-71.8 160-160z"/>
		</g>
	</g>
	<g id="Layer">
	</g>
	<g id="Layer">
	</g>
	<g id="Layer">
	</g>
	<g id="Layer">
	</g>
	<g id="Layer">
	</g>
	<g id="Layer">
	</g>
	<g id="Layer">
	</g>
	<g id="Layer">
	</g>
	<g id="Layer">
	</g>
	<g id="Layer">
	</g>
	<g id="Layer">
	</g>
	<g id="Layer">
	</g>
	<g id="Layer">
	</g>
	<g id="Layer">
	</g>
	<g id="Layer">
	</g>
</svg>