<svg version="1.2" xmlns="http://www.w3.org/2000/svg" viewBox="0 0 512 512" width="512" height="512">
	<title>security-box-svg</title>
	<style>
		.s0 { fill: #2d527c } 
		.s1 { fill: #f0bf5f } 
		.s2 { fill: #cee8fa } 
	</style>
	<g id="Layer">
		<path id="Layer" class="s0" d="m462.4 477.5h-412.8c-27.3 0-49.6-22.2-49.6-49.6v-343.8c0-27.4 22.3-49.6 49.6-49.6h270.9c7.8 0 14.1 6.3 14.1 14.1 0 7.8-6.3 14.1-14.1 14.1h-270.9c-11.8 0-21.4 9.6-21.4 21.4v343.8c0 11.8 9.6 21.4 21.4 21.4h412.8c11.8 0 21.4-9.6 21.4-21.4v-343.8c0-11.8-9.6-21.4-21.4-21.4h-60.6c-7.8 0-14.1-6.3-14.1-14.1 0-7.8 6.3-14.1 14.1-14.1h60.6c27.4 0 49.6 22.3 49.6 49.6v343.8c0 27.4-22.3 49.6-49.6 49.6z"/>
		<path id="Layer" class="s0" d="m411.7 415.3h-273.1c-7.8 0-14.1-6.3-14.1-14.1 0-7.8 6.3-14.1 14.1-14.1h273.1c5.4 0 9.8-4.4 9.8-9.8v-242.5c0-5.4-4.4-9.8-9.8-9.8h-273.1c-7.8 0-14.1-6.3-14.1-14.1 0-7.8 6.3-14.1 14.1-14.1h273.1c21 0 38.1 17.1 38.1 38.1v242.4c0 20.9-17.1 38-38.1 38z"/>
		<path id="Layer" class="s0" d="m76.3 415.3c-7.8 0-14.1-6.3-14.1-14.1v-290.4c0-7.8 6.3-14.1 14.1-14.1 7.8 0 14.1 6.3 14.1 14.1v290.4c0.1 7.8-6.3 14.1-14.1 14.1z"/>
	</g>
	<path id="Layer" fill-rule="evenodd" class="s1" d="m326.1 368.5c-62 0-112.5-50.5-112.5-112.5 0-62 50.5-112.5 112.5-112.5 62 0 112.5 50.5 112.5 112.5 0 62-50.5 112.5-112.5 112.5zm0-196.8c-46.5 0-84.3 37.8-84.3 84.3 0 46.5 37.8 84.3 84.3 84.3 46.5 0 84.3-37.8 84.3-84.3 0-46.5-37.8-84.3-84.3-84.3zm0 135.2c-28.1 0-50.9-22.8-50.9-50.9 0-28.1 22.8-50.9 50.9-50.9 28.1 0 50.9 22.8 50.9 50.9 0 28.1-22.8 50.9-50.9 50.9zm0-73.6c-12.5 0-22.7 10.2-22.7 22.7 0 12.5 10.2 22.7 22.7 22.7 12.5 0 22.7-10.2 22.7-22.7 0-12.5-10.2-22.7-22.7-22.7z"/>
	<path id="Layer" class="s2" d="m76.3 308.6h62.2v45.7h-62.2z"/>
	<path id="Layer" fill-rule="evenodd" class="s0" d="m138.6 368.4h-62.3c-7.8 0-14.1-6.3-14.1-14.1v-45.7c0-7.8 6.3-14.1 14.1-14.1h62.2c7.8 0 14.1 6.3 14.1 14.1v45.7c0.1 7.8-6.2 14.1-14 14.1zm-48.1-28.2h34v-17.5h-34z"/>
	<path id="Layer" class="s2" d="m76.3 157.7h62.2v45.7h-62.2z"/>
	<g id="Layer">
		<path id="Layer" fill-rule="evenodd" class="s0" d="m138.6 217.5h-62.3c-7.8 0-14.1-6.3-14.1-14.1v-45.7c0-7.8 6.3-14.1 14.1-14.1h62.2c7.8 0 14.1 6.3 14.1 14.1v45.7c0.1 7.8-6.2 14.1-14 14.1zm-48.1-28.2h34v-17.5h-34z"/>
		<path id="Layer" class="s1" d="m259.7 336.5c-3.6 0-7.2-1.4-10-4.1-5.5-5.5-5.5-14.5 0-20l40.4-40.4c5.5-5.5 14.5-5.5 20 0 5.5 5.5 5.5 14.5 0 20l-40.4 40.4c-2.8 2.7-6.4 4.1-10 4.1z"/>
		<path id="Layer" class="s1" d="m354.7 241.5c-3.6 0-7.2-1.4-10-4.1-5.5-5.5-5.5-14.5 0-20l37.8-37.8c5.5-5.5 14.5-5.5 20 0 5.5 5.5 5.5 14.5 0 20l-37.8 37.8c-2.7 2.7-6.4 4.1-10 4.1z"/>
		<path id="Layer" class="s1" d="m296.8 240.8c-3.6 0-7.2-1.4-10-4.1l-37.1-37.1c-5.5-5.5-5.5-14.5 0-20 5.5-5.5 14.5-5.5 20 0l37.1 37.1c5.5 5.5 5.5 14.5 0 20-2.7 2.8-6.4 4.1-10 4.1z"/>
		<path id="Layer" class="s1" d="m392.5 336.5c-3.6 0-7.2-1.4-10-4.1l-37.6-37.6c-5.5-5.5-5.5-14.5 0-20 5.5-5.5 14.5-5.5 20 0l37.6 37.6c5.5 5.5 5.5 14.5 0 20-2.8 2.7-6.4 4.1-10 4.1z"/>
	</g>
</svg>