<svg version="1.2" xmlns="http://www.w3.org/2000/svg" viewBox="0 0 512 512" width="512" height="512">
	<title>swimming-pool-svg</title>
	<style>
		.s0 { fill: #f0bf5f } 
		.s1 { fill: #cee8fa } 
		.s2 { fill: #2d527c } 
	</style>
	<g id="Layer">
		<path id="Layer" class="s0" d="m262.3 229.2c-7.9 0-14.4-6.4-14.4-14.4v-163.3c0.1-25.7 22.3-46.5 49.7-46.5 27.4 0 49.6 20.9 49.6 46.6 0 7.9-6.4 14.4-14.4 14.4-8 0-14.4-6.4-14.4-14.4 0-9.8-9.4-17.8-20.9-17.8-11.5 0-20.9 8-20.9 17.8v163.3c0.1 7.8-6.3 14.3-14.3 14.3z"/>
		<path id="Layer" class="s0" d="m427.1 270.8c-7.9 0-14.4-6.4-14.4-14.4v-204.9c0.1-25.7 22.3-46.5 49.7-46.5 27.4 0 49.6 20.8 49.6 46.5 0 7.9-6.4 14.4-14.4 14.4-7.9 0-14.4-6.4-14.4-14.4 0-9.8-9.4-17.8-20.9-17.8-11.5 0-20.9 8-20.9 17.8v204.9c0.1 7.9-6.3 14.4-14.3 14.4z"/>
		<path id="Layer" class="s0" d="m340 125h-77.6c-7.9 0-14.4-6.4-14.4-14.4 0-8 6.4-14.4 14.4-14.4h77.6c7.9 0 14.4 6.4 14.4 14.4 0 8-6.5 14.4-14.4 14.4z"/>
		<path id="Layer" class="s0" d="m340 229.2h-77.6c-7.9 0-14.4-6.4-14.4-14.4 0-8 6.4-14.4 14.4-14.4h77.6c7.9 0 14.4 6.4 14.4 14.4-0.1 7.9-6.5 14.4-14.4 14.4z"/>
		<path id="Layer" class="s0" d="m427.1 177.1h-77.6c-7.9 0-14.4-6.4-14.4-14.4 0-8 6.4-14.4 14.4-14.4h77.6c7.9 0 14.4 6.4 14.4 14.4 0 8-6.4 14.4-14.4 14.4z"/>
	</g>
	<path id="Layer" class="s1" d="m471.7 375.1c0 17.2-20.5 31.1-45.9 31.1-25.3 0-45.9-13.9-45.9-31.1 0 17.2-20.5 31.1-45.9 31.1-25.3 0-45.9-13.9-45.9-31.1h0.7c0 17.2-20.5 31.1-45.9 31.1-25.4 0-45.9-13.9-45.9-31.1 0 17.2-20.5 31.1-45.9 31.1-25.4 0-45.9-13.9-45.9-31.1h0.7c0 17.2-20.5 31.1-45.9 31.1-25.4 0-45.9-13.9-45.9-31.1v-88c0 17.2 20.5 31.1 45.9 31.1 25.4 0 45.9-13.9 45.9-31.1h-0.7c0 17.2 20.5 31.1 45.9 31.1 25.4 0 45.9-13.9 45.9-31.1 0 17.2 20.5 31.1 45.9 31.1 25.4 0 45.9-13.9 45.9-31.1h-0.7c0 17.2 20.5 31.1 45.9 31.1 25.4 0 45.9-13.9 45.9-31.1 0 17.2 20.5 31.1 45.9 31.1 25.4 0 45.9-13.9 45.9-31.1z"/>
	<g id="Layer">
		<path id="Layer" fill-rule="evenodd" class="s2" d="m425.8 420.6c-18.6 0-34.9-6-45.9-15.7-11 9.7-27.3 15.7-45.9 15.7-18.2 0-34.5-5.9-45.5-15.4-11 9.5-27.3 15.4-45.5 15.4-18.6 0-34.9-6-45.9-15.7-11 9.7-27.3 15.7-45.9 15.7-18.2 0-34.5-5.9-45.5-15.4-11 9.6-27.3 15.4-45.5 15.4-33.8 0-60.2-20-60.2-45.5v-88c0-7.9 6.4-14.4 14.4-14.4 8 0 14.4 6.4 14.4 14.4 0 7.7 13.8 16.7 31.5 16.7 16 0 28.3-6.9 31-13.9-0.1-0.9-0.1-1.9-0.1-2.8 0-7.9 6.4-14.4 14.4-14.4h0.7c7.9 0 14.4 6.4 14.4 14.4 0 0.9 0 1.9-0.1 2.8 2.7 7 15 13.9 31 13.9 17.7 0 31.5-9 31.5-16.7 0-7.9 6.4-14.4 14.4-14.4 8 0 14.4 6.4 14.4 14.4 0 7.7 13.8 16.7 31.5 16.7 16 0 28.3-6.9 31-13.9-0.1-0.9-0.1-1.9-0.1-2.8 0-7.9 6.4-14.4 14.4-14.4h0.7c7.9 0 14.4 6.4 14.4 14.4 0 0.9 0 1.9-0.1 2.8 2.7 7 15 13.9 31 13.9 17.7 0 31.5-9 31.5-16.7 0-7.9 6.4-14.4 14.4-14.4 7.9 0 14.4 6.4 14.4 14.4 0 7.7 13.8 16.7 31.5 16.7 17.7 0 31.5-9 31.5-16.7 0-7.9 6.4-14.4 14.4-14.4 8 0 14.4 6.4 14.4 14.4v88c-0.7 25.5-27.2 45.5-61 45.5zm-31.5-45.5c0 7.7 13.8 16.7 31.5 16.7 17.7 0 31.5-9 31.5-16.7v-49.1c-9.1 4.1-19.9 6.5-31.5 6.5-18.6 0-34.9-6-45.9-15.7-11 9.7-27.3 15.7-45.9 15.7-18.2 0-34.5-5.9-45.5-15.4-11 9.6-27.3 15.4-45.5 15.4-18.6 0-34.9-6-45.9-15.7-11 9.7-27.3 15.7-45.9 15.7-18.2 0-34.5-5.9-45.5-15.4-11 9.6-27.3 15.4-45.5 15.4-11.6 0-22.4-2.4-31.5-6.5v49.1c0 7.7 13.8 16.7 31.5 16.7 16 0 28.3-6.9 31-13.9-0.1-0.9-0.1-1.9-0.1-2.8 0-7.9 6.4-14.4 14.4-14.4h0.7c7.9 0 14.4 6.4 14.4 14.4 0 0.9 0 1.9-0.1 2.8 2.7 7 15 13.9 31 13.9 17.7 0 31.5-9 31.5-16.7 0-7.9 6.4-14.4 14.4-14.4 8 0 14.4 6.4 14.4 14.4 0 7.7 13.8 16.7 31.5 16.7 16 0 28.3-6.9 31-13.9-0.1-0.9-0.1-1.9-0.1-2.8 0-7.9 6.4-14.4 14.4-14.4h0.7c7.9 0 14.4 6.4 14.4 14.4 0 0.9 0 1.9-0.1 2.8 2.7 7 15 13.9 31 13.9 17.7 0 31.5-9 31.5-16.7 0-7.9 6.4-14.4 14.4-14.4 7.4 0.1 13.8 6.5 13.8 14.4z"/>
		<path id="Layer" class="s2" d="m334.1 507c-18.4 0-34.6-5.9-45.5-15.4-11 9.5-27.2 15.4-45.5 15.4-18.6 0-34.9-6-45.9-15.7-11 9.7-27.3 15.7-45.9 15.7-33.8 0-60.2-20-60.2-45.5 0-7.9 6.4-14.4 14.4-14.4h0.7c7.9 0 14.4 6.4 14.4 14.4 0 0.8-0.1 1.7-0.2 2.5 2.5 7.1 15.2 14.3 31.1 14.3 17.7 0 31.5-9 31.5-16.7 0-7.9 6.4-14.4 14.4-14.4 8 0 14.4 6.4 14.4 14.4 0 7.7 13.8 16.7 31.5 16.7 15.7 0 28.2-7 30.9-14-0.1-0.9-0.1-1.8-0.1-2.8 0-7.9 6.4-14.4 14.4-14.4h0.7c7.9 0 14.4 6.4 14.4 14.4 0 0.9 0 1.8-0.1 2.8 2.7 7 15.3 14 30.9 14 17.7 0 31.5-9 31.5-16.7 0-7.9 6.4-14.4 14.4-14.4 7.9 0 14.4 6.4 14.4 14.4-0.4 25.5-26.8 45.4-60.6 45.4z"/>
	</g>
</svg>